<svg width="272" height="272" viewBox="0 0 272 272" fill="none" xmlns="http://www.w3.org/2000/svg">
<path d="M79.4308 64.0585C79.6921 64.0463 79.9537 64.0357 80.2152 64.0268C85.1469 63.8601 90.9198 63.9997 95.9018 63.9997L125.803 64.0014L143.87 64.0029C146.881 64.0034 149.912 63.9552 152.919 64.0612C153.719 64.1313 154.966 64.611 155.585 65.1144C157.706 66.8411 157.149 71.3372 157.124 73.8634C160.609 73.9023 164.094 73.92 167.579 73.9165C169.754 73.9136 173.015 73.7841 175.042 74.1902C176.339 74.4528 177.552 75.0294 178.576 75.8694C179.727 76.8104 181.273 78.5727 182.325 79.7253C184.574 82.2011 186.799 84.6978 189 87.2154L194.242 93.1397C195.475 94.5342 196.831 95.9651 197.857 97.5012C197.95 98.7972 197.974 100.323 197.952 101.625C197.826 109.005 198.274 116.684 197.885 124.033C196.507 126.38 193.953 125.771 191.528 125.775C191.096 113.709 177.508 107.118 167.745 114.371C164.029 117.132 162.543 121.178 161.978 125.682C158.553 125.937 152.389 125.745 148.82 125.744L122.797 125.765C122.576 123.106 122.095 121.065 120.726 118.726C118.709 115.3 115.413 112.817 111.564 111.822C107.328 110.756 104.032 111.549 100.386 113.705C96.0408 117.078 94.3564 120.282 93.6028 125.772C90.905 125.701 87.9508 125.746 85.2454 125.751C85.7015 124.584 86.3775 121.338 86.8252 119.852C88.3088 114.796 90.4696 109.963 93.2492 105.487C102.104 91.14 117.222 81.8748 133.511 78.3676C136.46 77.7165 139.436 77.1979 142.431 76.8133C144.246 76.5872 146.106 76.5011 147.901 76.1782C149.139 75.9557 149.062 73.4608 147.929 73.209C146.403 72.8701 144.539 73.1291 142.958 73.2313C133.352 73.8534 123.672 75.8067 114.813 79.641C101.19 85.5186 90.0374 95.9553 83.2708 109.159C80.8884 113.871 79.9918 117.023 78.1536 121.666C77.5169 121.613 77.0014 121.715 76.6413 121.178C76.5214 117.915 76.594 114.373 76.5944 111.081L76.5928 94.127L76.5969 77.3433C76.5955 74.1338 76.5857 70.9298 76.6279 67.7205C76.6553 65.6357 77.286 64.5932 79.4308 64.0585ZM184.551 99.1642C185.965 99.1267 188.106 99.3751 188.141 97.3894C188.147 96.9872 187.607 96.3221 187.369 95.9854C185.757 94.0494 184.054 92.1295 182.399 90.2293L174.359 80.952C172.432 80.6099 170.162 80.6848 168.179 80.6824L160.068 80.6821C158.468 80.7228 157.222 80.5027 157.18 82.5355C157.091 86.7163 157.156 90.9032 157.152 95.0856C157.152 96.0427 157.048 98.0273 157.577 98.7786C158.68 99.1923 160.149 99.11 161.335 99.1292C169.056 99.2546 176.837 99.0233 184.551 99.1642Z" fill="#1A7FD4"/>
<path d="M96.2419 162.877C96.6494 162.795 98.7907 162.787 99.2751 162.844C102.615 163.244 105.148 164.059 107.322 166.648C107.31 165.596 107.291 164.544 107.265 163.492C109.566 163.498 111.866 163.49 114.166 163.468C114.041 169.984 114.266 176.711 114.174 183.249C114.045 186.6 114.487 190.108 113.909 193.423C112.761 200.005 107.403 204.936 100.792 205.654C94.4742 206.339 90.0397 205.108 85.0991 201.284C85.4437 200.539 86.2771 199.208 86.7173 198.456C87.289 197.302 87.9365 196.207 88.579 195.092C91.1424 196.841 93.0687 197.901 96.2145 198.205C100.696 198.638 105.124 197.235 106.568 192.522C106.972 191.2 106.999 190.002 107.077 188.631C106.927 188.857 106.771 189.08 106.611 189.299C105.037 191.445 102.178 192.68 99.5969 192.983C80.8318 195.191 77.5606 165.403 96.2419 162.877ZM100.92 186.032C109.936 183.89 108.61 168.451 97.7036 169.766C88.57 171.599 89.4657 187.592 100.92 186.032Z" fill="#1A7FD4"/>
<path d="M204.203 163.487H212.256C213.848 169.671 215.858 177.063 217.71 183.101C219.064 176.97 221.943 169.578 223.241 163.494C225.828 163.512 228.416 163.508 231.005 163.48C232.824 170.11 234.839 176.719 236.631 183.32C236.892 182.298 237.185 181.284 237.478 180.272C239.096 174.699 240.501 169.03 242.217 163.491C244.837 163.508 247.456 163.507 250.077 163.484C249.672 165.382 248.811 168.025 248.223 169.895C246.424 175.486 244.844 181.172 243.01 186.757C242.391 188.646 241.794 190.595 241.263 192.509C238.384 192.455 235.396 192.506 232.51 192.524C230.674 186.667 229.056 180.768 227.266 174.919C226.93 176.556 226.05 179.213 225.538 180.904C224.342 184.77 223.19 188.648 222.082 192.541C219.898 192.38 215.601 192.479 213.367 192.564C210.366 182.855 207.311 173.162 204.203 163.487Z" fill="#1A7FD4"/>
<path d="M63.4057 162.726C71.8219 161.442 79.6807 167.238 80.9403 175.658C82.1999 184.077 76.3813 191.919 67.9578 193.155C59.5688 194.384 51.7663 188.595 50.5119 180.209C49.2575 171.824 55.0242 164.005 63.4057 162.726ZM66.6328 186.321C68.8574 186.041 70.5132 185.276 71.8911 183.5C74.5797 180.034 74.1624 173.83 70.4945 171.181C68.8225 169.973 67.4207 169.738 65.4577 169.657C57.7275 170.262 55.7818 179.685 60.8786 184.635C62.4102 186.122 64.5633 186.361 66.6328 186.321Z" fill="#1A7FD4"/>
<path d="M186.923 162.755C195.322 161.491 203.155 167.277 204.413 175.678C205.671 184.078 199.877 191.906 191.476 193.157C183.085 194.407 175.267 188.622 174.011 180.231C172.755 171.841 178.533 164.019 186.923 162.755ZM189.966 186.336C200.567 184.83 198.678 169.121 188.956 169.665C186.871 169.787 184.987 170.324 183.552 171.928C180.529 175.307 180.691 181.687 184.273 184.629C186.129 186.153 187.752 186.313 189.966 186.336Z" fill="#1A7FD4"/>
<path d="M138.821 152.535L158.347 152.525C158.317 154.891 158.317 157.259 158.346 159.626C156.571 159.464 154.31 159.623 152.471 159.614C148.464 159.595 144.392 159.703 140.388 159.537C140.409 163.022 140.411 166.508 140.393 169.993C141.945 169.834 144.527 169.908 146.172 169.91C149.73 169.935 153.288 169.916 156.846 169.854C156.837 172.202 156.846 174.549 156.874 176.897C155.948 176.889 155.021 176.873 154.096 176.852C152.76 176.935 150.604 176.868 149.212 176.865C146.286 176.876 143.36 176.864 140.435 176.831C140.29 181.787 140.388 187.559 140.419 192.546C138.792 192.44 134.409 192.413 132.842 192.548C132.785 190.667 132.784 188.77 132.794 186.888C132.859 175.451 132.683 163.99 132.822 152.554L138.821 152.535Z" fill="#1A7FD4"/>
<path d="M23.1502 152.485C25.5757 152.616 28.3781 152.55 30.8331 152.547L30.8501 185.264C36.258 184.943 42.863 185.385 48.4893 185.178L48.4746 192.567L46.4694 192.553C44.4589 192.379 40.613 192.528 38.4576 192.522C33.3419 192.468 28.2257 192.481 23.1104 192.562C23.3815 186.817 23.2021 179.552 23.1795 173.662C23.1535 166.883 23.3767 159.196 23.1502 152.485Z" fill="#1A7FD4"/>
<path d="M175.522 115.074C181.411 114.408 186.724 118.644 187.387 124.533C188.048 130.422 183.809 135.732 177.92 136.39C172.035 137.048 166.732 132.812 166.07 126.929C165.409 121.046 169.64 115.739 175.522 115.074ZM177.638 129.646C179.853 129.148 181.237 126.938 180.718 124.728C180.199 122.518 177.977 121.155 175.772 121.694C173.595 122.227 172.254 124.414 172.767 126.595C173.278 128.776 175.452 130.138 177.638 129.646Z" fill="#1A7FD4"/>
<path d="M106.61 115.099C112.463 114.322 117.836 118.442 118.603 124.297C119.371 130.151 115.241 135.517 109.386 136.274C103.544 137.029 98.1942 132.912 97.4288 127.072C96.6634 121.232 100.772 115.875 106.61 115.099ZM108.975 129.584C111.123 129.048 112.442 126.885 111.934 124.73C111.426 122.574 109.279 121.228 107.118 121.709C105.695 122.025 104.552 123.083 104.126 124.477C103.7 125.871 104.058 127.387 105.061 128.444C106.065 129.501 107.56 129.937 108.975 129.584Z" fill="#1A7FD4"/>
<path d="M162.545 152.509C165.078 152.543 167.612 152.551 170.146 152.531C170.032 157.218 170.13 162.346 170.13 167.06L170.146 192.52C167.749 192.528 164.931 192.384 162.58 192.561C162.485 188.098 162.553 183.431 162.549 178.953L162.545 152.509Z" fill="#1A7FD4"/>
<path d="M119.089 163.486C121.579 163.511 124.07 163.507 126.56 163.474L126.571 183.548L126.57 189.105C126.574 190.048 126.637 191.599 126.522 192.492L126.317 192.586C124.367 192.475 121.047 192.437 119.102 192.557C119.188 189.008 119.112 185.13 119.113 181.559L119.089 163.486Z" fill="#1A7FD4"/>
<path d="M122.111 151.43C123.24 151.354 124.381 151.511 125.351 152.126C126.334 152.737 127.007 153.741 127.2 154.882C127.389 155.931 127.153 157.012 126.545 157.887C125.768 158.989 124.796 159.396 123.528 159.633C122.198 159.665 121.105 159.662 119.94 158.919C119.058 158.355 118.44 157.459 118.226 156.435C117.995 155.393 118.189 154.304 118.765 153.406C119.559 152.194 120.739 151.682 122.111 151.43Z" fill="#1A7FD4"/>
</svg>
